<?xml version="1.0" standalone="no"?>
<!DOCTYPE svg PUBLIC "-//W3C//DTD SVG 20010904//EN"
 "http://www.w3.org/TR/2001/REC-SVG-20010904/DTD/svg10.dtd">
<svg version="1.0" xmlns="http://www.w3.org/2000/svg"
 width="204.000000pt" height="204.000000pt" viewBox="0 0 204.000000 204.000000"
 preserveAspectRatio="xMidYMid meet">
<metadata>
Created by potrace 1.11, written by Peter Selinger 2001-2013
</metadata>
<g transform="translate(0.000000,204.000000) scale(0.100000,-0.100000)"
fill="#000000" stroke="none">
<path d="M1145 1666 c-2 -12 -3 -48 -2 -81 l2 -59 35 -7 c19 -4 62 -12 95 -18
198 -36 342 -201 374 -427 11 -75 -3 -195 -31 -261 -6 -16 -12 -31 -12 -34 -1
-3 -18 -33 -39 -67 -79 -129 -224 -215 -378 -224 -45 -2 -47 -7 -48 -94 -1
-42 3 -63 11 -66 16 -5 146 -2 173 5 53 13 143 55 200 92 112 74 224 229 257
355 5 19 11 44 14 55 3 11 7 85 8 165 2 116 -1 159 -16 215 -20 73 -76 195
-90 195 -4 0 -8 6 -8 13 -1 39 -195 198 -260 211 -3 1 -9 4 -15 7 -5 4 -23 10
-40 14 -45 12 -45 12 -47 15 -8 6 -51 11 -111 14 -62 3 -68 1 -72 -18z"/>
<path d="M1067 1657 c-8 -12 -24 -33 -36 -47 -25 -30 -21 -26 -96 -125 -48
-64 -139 -183 -183 -240 -4 -5 -19 -24 -31 -42 l-24 -32 -56 68 c-31 37 -90
108 -131 157 -41 49 -82 98 -92 109 -93 112 -131 154 -137 151 -3 -2 -6 -303
-6 -667 l0 -664 75 0 75 0 2 444 c1 244 4 445 6 447 2 2 61 -66 132 -151 70
-85 133 -155 139 -155 6 1 61 67 121 147 l110 147 5 -439 5 -440 65 0 c36 -1
71 1 78 3 9 3 12 147 12 672 0 381 -4 671 -9 674 -5 3 -16 -4 -24 -17z"/>
</g>
</svg>
